<?xml version="1.0" encoding="UTF-8"?>
<svg version="1.1" xmlns="http://www.w3.org/2000/svg" width="512" height="512">
<path d="M0 0 C168.96 0 337.92 0 512 0 C512 168.96 512 337.92 512 512 C343.04 512 174.08 512 0 512 C0 343.04 0 174.08 0 0 Z " fill="#8AC249" transform="translate(0,0)"/>
<path d="M0 0 C118.14 0 236.28 0 358 0 C358 28.38 358 56.76 358 86 C354.66657402 82.66657402 352.86775141 80.3656234 350.625 76.375 C347.86373564 71.50849522 345.01380506 66.7167925 342.06640625 61.9609375 C341 60 341 60 341 58 C340.01 57.67 339.02 57.34 338 57 C336.1875 54.75 336.1875 54.75 335 52 C336.13766296 47.98548817 338.06538427 45.58803932 340.9375 42.625 C343.424574 39.93216089 345.3947587 37.6922995 346.6875 34.25 C348.19152145 30.52575642 350.07649928 28.70423816 353 26 C355.27300918 23.32109633 356.23722863 21.39715766 357 18 C345.65507896 17.2627777 345.65507896 17.2627777 335.3203125 20.82421875 C333.55060521 23.14056896 332.2495443 25.37004695 331 28 C330.19221314 29.35698342 329.38027556 30.71151268 328.5625 32.0625 C328.046875 33.031875 327.53125 34.00125 327 35 C324.37497441 33.68748721 323.8790642 32.25642751 322.5 29.6875 C322.0771875 28.90761719 321.654375 28.12773437 321.21875 27.32421875 C320.43235283 25.82451902 319.67939681 24.30657416 318.96875 22.76953125 C318.12176635 20.8234685 318.12176635 20.8234685 316 20 C316 19.34 316 18.68 316 18 C309.73 18 303.46 18 297 18 C300.703407 27.90570942 300.703407 27.90570942 307.125 36.0625 C309.68040106 38.7030811 310.63303805 41.6123117 312 45 C312.598125 45.86625 313.19625 46.7325 313.8125 47.625 C315 50 315 50 314.5625 52.3125 C312.7784157 55.38112499 310.69416516 58.08170299 308.515625 60.87890625 C306.6190946 63.53307121 305.31189181 66.31639301 303.93359375 69.26171875 C302.68330749 71.5896576 300.86017356 73.13982644 299 75 C297.82691249 77.29126454 296.92639892 79.59136281 296 82 C297.7325 81.9690625 297.7325 81.9690625 299.5 81.9375 C302.51164759 81.92145214 305.33921172 82.15611409 308.3125 82.625 C312.0838401 83.40346525 312.0838401 83.40346525 315 81 C315.68346682 79.34015202 316.34588315 77.67163195 317 76 C317.78183634 74.5661825 318.5968946 73.15017258 319.4375 71.75 C319.84871094 71.06421875 320.25992187 70.3784375 320.68359375 69.671875 C322 68 322 68 325 67 C325.87830273 68.28942316 326.75237623 69.58172682 327.625 70.875 C328.17929687 71.68839844 328.73359375 72.50179687 329.3046875 73.33984375 C331 76 331 76 332.3828125 78.75390625 C334.92462357 83.97862837 334.92462357 83.97862837 339.6015625 87.07421875 C342.09067648 87.56853575 344.46669082 87.88985612 347 88 C346.34 89.32 345.68 90.64 345 92 C345.99 92.66 346.98 93.32 348 94 C350.18490007 91.32357511 350.18490007 91.32357511 350 89 C352.64 88.67 355.28 88.34 358 88 C358 92.62 358 97.24 358 102 C239.86 102 121.72 102 0 102 C0 68.34 0 34.68 0 0 Z " fill="#020301" transform="translate(77,205)"/>
<path d="M0 0 C6.27 0 12.54 0 19 0 C19 0.66 19 1.32 19 2 C19.99 2.33 20.98 2.66 22 3 C23.28125 4.92578125 23.28125 4.92578125 24.5 7.3125 C26.11514138 10.44442478 27.81812476 13.22825732 30 16 C30.29132813 15.43152344 30.58265625 14.86304688 30.8828125 14.27734375 C31.29273438 13.50519531 31.70265625 12.73304688 32.125 11.9375 C32.51945312 11.18339844 32.91390625 10.42929688 33.3203125 9.65234375 C33.87460937 8.77707031 34.42890625 7.90179688 35 7 C35.38655762 6.38777588 35.77311523 5.77555176 36.17138672 5.14477539 C38.23624156 2.28594074 39.75463629 0.30697853 43.26513672 -0.55834961 C45.8361965 -0.68834701 48.30708476 -0.61346407 50.875 -0.4375 C52.19371094 -0.39012695 52.19371094 -0.39012695 53.5390625 -0.34179688 C55.69416087 -0.25980944 57.847526 -0.13426323 60 0 C59.46423809 3.4324087 58.77307613 5.77957953 56.6875 8.5625 C56.01847656 9.45775391 56.01847656 9.45775391 55.3359375 10.37109375 C54 12 54 12 51.8125 14.125 C49.72110995 16.28850695 49.04869186 18.20348837 48 21 C46.5 23.3125 46.5 23.3125 45 25 C44.34 25 43.68 25 43 25 C42.31379969 26.32338632 41.65213539 27.65949948 41 29 C40.566875 29.804375 40.13375 30.60875 39.6875 31.4375 C38.70137995 34.04561147 38.70137995 34.04561147 40.125 36.5625 C41.88593588 38.98910432 41.88593588 38.98910432 43.875 40.75 C46.36584703 43.38736744 47.80910037 46.10530195 49.5 49.296875 C51.89968957 53.62131559 54.63492929 57.74061483 57.328125 61.88671875 C59.01707438 65.03179505 59.64035517 67.47230731 60 71 C57.69 71 55.38 71 53 71 C53.33 71.99 53.66 72.98 54 74 C52.68 74.99 51.36 75.98 50 77 C49.01 75.68 48.02 74.36 47 73 C47.66 72.34 48.32 71.68 49 71 C48.41992188 70.96003906 47.83984375 70.92007813 47.2421875 70.87890625 C43.58167339 70.38962961 40.90321759 69.93598739 38.27734375 67.21484375 C36.72255597 64.86400462 35.34182927 62.47865684 34 60 C32.94753056 58.14012141 31.88519139 56.28578933 30.8125 54.4375 C30.34457031 53.59058594 29.87664062 52.74367188 29.39453125 51.87109375 C28.93433594 51.25363281 28.47414063 50.63617188 28 50 C27.01 50 26.02 50 25 50 C24.731875 50.7425 24.46375 51.485 24.1875 52.25 C23.04702351 54.89110345 21.71322928 56.71569429 20 59 C19.690625 59.86625 19.38125 60.7325 19.0625 61.625 C18 64 18 64 16.41796875 65.203125 C12.92648452 66.35379185 9.79404238 65.70785763 6.25 65.125 C5.55261719 65.02058594 4.85523438 64.91617188 4.13671875 64.80859375 C2.42274441 64.55032364 0.7111005 64.27667048 -1 64 C1.45631068 55.12378641 1.45631068 55.12378641 6 52 C6.66817965 50.39636884 7.32852714 48.78864982 7.93359375 47.16015625 C9.84934142 43.27953918 12.7942373 40.0606815 15.55078125 36.74609375 C17.3567829 34.02411218 17.3567829 34.02411218 16.35546875 30.78515625 C15.1587534 27.9411698 15.1587534 27.9411698 13 26 C12.18991376 23.68849737 11.53922493 21.35437476 10.87890625 18.99609375 C10.58886719 18.33738281 10.29882812 17.67867187 10 17 C9.01 16.67 8.02 16.34 7 16 C5.17578125 13.41796875 5.17578125 13.41796875 3.3125 10.1875 C2.68988281 9.12917969 2.06726563 8.07085937 1.42578125 6.98046875 C0 4 0 4 0 0 Z " fill="#A2BC6D" transform="translate(374,223)"/>
<path d="M0 0 C1.00869141 -0.020625 2.01738281 -0.04125 3.05664062 -0.0625 C10.66544275 -0.10169537 18.10932359 0.58160592 24.5625 4.9375 C28.82885109 11.51479127 28.71860622 19.67495545 28.0625 27.25 C26.38777524 35.07302937 26.38777524 35.07302937 23.421875 37.70703125 C21.82345322 39.17790206 21.82345322 39.17790206 22.06640625 41.4140625 C23.25802271 46.6638413 24.85277548 51.27954393 27.17578125 56.1328125 C28.45025784 59.17583589 28.78380654 61.97535181 29.0625 65.25 C24.4425 65.58 19.8225 65.91 15.0625 66.25 C12.39583333 58.25 9.72916667 50.25 7.0625 42.25 C5.4125 41.92 3.7625 41.59 2.0625 41.25 C2.0625 49.83 2.0625 58.41 2.0625 67.25 C-3.6257672 69.14608907 -6.25129141 69.44607616 -11.9375 69.25 C-11.96062589 60.4011761 -11.97841634 51.55236253 -11.98931217 42.70351505 C-11.99454046 38.59505715 -12.00163713 34.48661986 -12.01293945 30.37817383 C-12.02377025 26.41653172 -12.02977724 22.45490948 -12.03237724 18.49325371 C-12.03423114 16.97851689 -12.0378511 15.46378121 -12.04323006 13.94905281 C-12.05044307 11.83458187 -12.05149083 9.72019406 -12.05102539 7.60571289 C-12.053246 6.39992081 -12.05546661 5.19412872 -12.05775452 3.95179749 C-11.78875966 -2.09179774 -4.75558485 0.02349888 0 0 Z " fill="#A2BF6F" transform="translate(89.9375,222.75)"/>
<path d="M0 0 C5.83545772 4.11971683 8.41871167 8.93388236 10.2265625 15.78515625 C10.77255369 20.65340205 10.78670759 25.45334994 10.7265625 30.34765625 C10.74203125 31.61029297 10.7575 32.87292969 10.7734375 34.17382812 C10.73571754 43.20304357 9.21298865 49.84864458 3.9765625 57.22265625 C-0.36590258 61.26904417 -4.45997652 61.57484162 -10.2109375 62.09765625 C-15.9344214 61.59559626 -20.67969577 60.88280421 -24.8671875 56.6875 C-29.50764809 50.83937856 -30.93422513 46.70770656 -31.01171875 39.265625 C-31.0197905 38.52943436 -31.02786224 37.79324371 -31.03617859 37.03474426 C-31.04999785 35.47720683 -31.06072965 33.91963938 -31.06860352 32.36206055 C-31.0801212 30.77440477 -31.10056997 29.18678765 -31.13012695 27.59936523 C-31.1729271 25.30035196 -31.18898878 23.00248786 -31.19921875 20.703125 C-31.21672684 19.99979538 -31.23423492 19.29646576 -31.25227356 18.57182312 C-31.23014493 13.4997197 -29.8718717 10.73420596 -26.7734375 6.78515625 C-26.34160156 6.181875 -25.90976563 5.57859375 -25.46484375 4.95703125 C-19.48670303 -2.57253007 -8.6914144 -3.80708434 0 0 Z " fill="#A4C06F" transform="translate(155.7734375,224.21484375)"/>
<path d="M0 0 C4.29 0 8.58 0 13 0 C12.15973748 3.36105009 11.49895651 5.10226285 9.75 7.93359375 C9.08484375 9.0309082 9.08484375 9.0309082 8.40625 10.15039062 C7.47049228 11.67229659 6.53299754 13.19313593 5.59375 14.71289062 C2.23568019 19.99284377 2.23568019 19.99284377 1 26 C1.86109612 28.6116404 1.86109612 28.6116404 3.375 31.25 C3.92027344 32.28382813 4.46554688 33.31765625 5.02734375 34.3828125 C5.68328605 35.58941818 6.34098564 36.79506945 7 38 C8.23521717 40.26938789 9.46729778 42.54029055 10.69189453 44.81542969 C11.51636975 46.34415089 12.34928084 47.86835505 13.19091797 49.38769531 C14.18766633 51.22699893 15.10180135 53.11061273 16 55 C15.505 55.99 15.505 55.99 15 57 C10.05 57 5.1 57 0 57 C-1.11375 54.793125 -2.2275 52.58625 -3.375 50.3125 C-3.72224121 49.62712158 -4.06948242 48.94174316 -4.42724609 48.2355957 C-6.11479925 44.87558292 -7.66866505 41.51660696 -9 38 C-9.99 38.495 -9.99 38.495 -11 39 C-11.33 44.94 -11.66 50.88 -12 57 C-16.29 57 -20.58 57 -25 57 C-25 38.52 -25 20.04 -25 1 C-21.04 1 -17.08 1 -13 1 C-12.67 7.6 -12.34 14.2 -12 21 C-8.89059253 16.33588879 -7.55830334 13.98657069 -6 9 C-5.02995879 6.98529902 -4.03755118 4.98077953 -3 3 C-2.34 3 -1.68 3 -1 3 C-0.67 2.01 -0.34 1.02 0 0 Z " fill="#A3BF6E" transform="translate(244,224)"/>
<path d="M0 0 C1.77697266 -0.02513672 1.77697266 -0.02513672 3.58984375 -0.05078125 C9.8601329 0.60516576 14.11465439 3.48735537 18.0625 8.3125 C19.58271513 12.36640702 20.44483775 15.97933885 20.0625 20.3125 C19.0625 21.3125 19.0625 21.3125 16.33984375 21.41015625 C15.23769531 21.39855469 14.13554687 21.38695312 13 21.375 C11.89527344 21.36597656 10.79054687 21.35695312 9.65234375 21.34765625 C8.79769531 21.33605469 7.94304687 21.32445312 7.0625 21.3125 C6.4025 19.0025 5.7425 16.6925 5.0625 14.3125 C0.56577206 13.26674932 -1.75670801 13.44645656 -5.9375 15.3125 C-5.99554281 19.72911151 -6.03111104 24.14562496 -6.0625 28.5625 C-6.07925781 29.81675781 -6.09601563 31.07101563 -6.11328125 32.36328125 C-6.11972656 33.56855469 -6.12617188 34.77382813 -6.1328125 36.015625 C-6.14852295 37.68093262 -6.14852295 37.68093262 -6.16455078 39.37988281 C-5.93930106 42.28923727 -5.61823324 43.94257535 -3.9375 46.3125 C0.1490191 47.4765191 0.1490191 47.4765191 4.0625 46.3125 C4.3925 44.3325 4.7225 42.3525 5.0625 40.3125 C10.0125 40.3125 14.9625 40.3125 20.0625 40.3125 C19.26612851 48.14348627 18.29312332 52.95126598 12.0625 58.3125 C5.65830383 61.531363 -2.31021053 61.25057061 -9.23046875 59.84765625 C-13.57234847 58.22783799 -16.78534205 55.36460989 -18.9375 51.3125 C-23.14675231 39.34243875 -23.08409964 19.91155291 -17.9375 8.3125 C-13.39536658 1.68202937 -7.7285214 0.02517434 0 0 Z " fill="#9DB86B" transform="translate(192.9375,222.6875)"/>
<path d="M0 0 C0.70507187 -0.00095673 1.41014374 -0.00191345 2.13658142 -0.00289917 C3.62694386 -0.00357979 5.11730927 -0.00173371 6.60766602 0.00244141 C8.89671433 0.00779932 11.18556712 0.00248841 13.47460938 -0.00390625 C14.92057335 -0.0032456 16.36653721 -0.00196472 17.8125 0 C18.84528831 -0.00303635 18.84528831 -0.00303635 19.89894104 -0.00613403 C24.72488611 0.01785486 24.72488611 0.01785486 25.83984375 1.1328125 C25.93835546 2.96397133 25.96957004 4.79901183 25.96484375 6.6328125 C25.96871094 8.13328125 25.96871094 8.13328125 25.97265625 9.6640625 C25.83984375 12.1328125 25.83984375 12.1328125 24.83984375 13.1328125 C23.35112515 13.21950682 21.85839875 13.23984744 20.3671875 13.23046875 C19.46806641 13.22724609 18.56894531 13.22402344 17.64257812 13.22070312 C16.69705078 13.21232422 15.75152344 13.20394531 14.77734375 13.1953125 C13.82794922 13.19080078 12.87855469 13.18628906 11.90039062 13.18164062 C9.54684844 13.16981378 7.19333843 13.15187771 4.83984375 13.1328125 C4.83984375 16.7628125 4.83984375 20.3928125 4.83984375 24.1328125 C9.78984375 24.1328125 14.73984375 24.1328125 19.83984375 24.1328125 C19.83984375 28.0928125 19.83984375 32.0528125 19.83984375 36.1328125 C14.88984375 36.1328125 9.93984375 36.1328125 4.83984375 36.1328125 C4.83984375 43.3928125 4.83984375 50.6528125 4.83984375 58.1328125 C0.21984375 58.1328125 -4.40015625 58.1328125 -9.16015625 58.1328125 C-9.16015625 39.3228125 -9.16015625 20.5128125 -9.16015625 1.1328125 C-6.21295016 -0.34079055 -3.22980257 -0.00952346 0 0 Z " fill="#9BB56A" transform="translate(273.16015625,222.8671875)"/>
<path d="M0 0 C1.48693359 0.00386719 1.48693359 0.00386719 3.00390625 0.0078125 C3.99261719 0.00523437 4.98132813 0.00265625 6 0 C8.56640625 0.1328125 8.56640625 0.1328125 10.56640625 1.1328125 C10.56640625 16.6428125 10.56640625 32.1528125 10.56640625 48.1328125 C17.16640625 48.4628125 23.76640625 48.7928125 30.56640625 49.1328125 C31.56640625 50.1328125 31.56640625 50.1328125 31.6640625 52.63671875 C31.65246094 53.64605469 31.64085937 54.65539062 31.62890625 55.6953125 C31.61988281 56.70722656 31.61085938 57.71914063 31.6015625 58.76171875 C31.58996094 59.54417969 31.57835937 60.32664062 31.56640625 61.1328125 C27.9622574 61.16234353 24.35814049 61.17978657 20.75390625 61.1953125 C19.74908203 61.20369141 18.74425781 61.21207031 17.70898438 61.22070312 C10.97783657 61.24234669 4.23482031 61.14237007 -2.43359375 60.1328125 C-4.16427074 58.40213551 -3.56115904 56.06792446 -3.56298828 53.7109375 C-3.56614044 52.55303711 -3.5692926 51.39513672 -3.57254028 50.20214844 C-3.57051605 48.94176758 -3.56849182 47.68138672 -3.56640625 46.3828125 C-3.56784134 44.45743652 -3.56784134 44.45743652 -3.56930542 42.49316406 C-3.57078206 39.77277426 -3.56862894 37.05241725 -3.56396484 34.33203125 C-3.55826756 30.83796581 -3.56154674 27.34397717 -3.56753731 23.84991455 C-3.57201129 20.52754097 -3.5688826 17.20518827 -3.56640625 13.8828125 C-3.56843048 12.62243164 -3.57045471 11.36205078 -3.57254028 10.06347656 C-3.56938812 8.90557617 -3.56623596 7.74767578 -3.56298828 6.5546875 C-3.56179489 5.01699707 -3.56179489 5.01699707 -3.56057739 3.44824219 C-3.38520507 0.25048949 -3.20462433 0.17489122 0 0 Z " fill="#9DB86C" transform="translate(307.43359375,222.8671875)"/>
<path d="M0 0 C1.093125 0.00257813 2.18625 0.00515625 3.3125 0.0078125 C4.405625 0.00523437 5.49875 0.00265625 6.625 0 C9.3125 0.1328125 9.3125 0.1328125 10.3125 1.1328125 C10.40646057 3.06587748 10.42993517 5.00240088 10.42602539 6.93774414 C10.42594986 8.17895523 10.42587433 9.42016632 10.42579651 10.69898987 C10.42068911 12.0636499 10.4154731 13.42830952 10.41015625 14.79296875 C10.408292 16.18159433 10.40686813 17.57022057 10.40586853 18.95884705 C10.40204387 22.62002365 10.39221403 26.2811608 10.38116455 29.94232178 C10.37094932 33.67573513 10.36637067 37.40915484 10.36132812 41.14257812 C10.3505917 48.47267635 10.33299534 55.80273388 10.3125 63.1328125 C3.3825 62.6378125 3.3825 62.6378125 -3.6875 62.1328125 C-3.71005473 54.1966704 -3.72841723 46.26055304 -3.73931217 38.32438755 C-3.74454008 34.63966752 -3.75163605 30.95497047 -3.76293945 27.27026367 C-3.77377162 23.71710419 -3.77977753 20.16396687 -3.78237724 16.61079216 C-3.7842309 15.25235584 -3.78785038 13.89392079 -3.79323006 12.53549385 C-3.80044475 10.63899027 -3.80090809 8.74246457 -3.80102539 6.84594727 C-3.803246 5.76450943 -3.80546661 4.68307159 -3.80775452 3.56886292 C-3.6382353 0.13483508 -3.45619872 0.17080052 0 0 Z " fill="#9CB76B" transform="translate(350.6875,222.8671875)"/>
<path d="M0 0 C2.97624865 2.59221656 3.36816373 5.21796913 4 9 C4.23576386 12.62290464 4.23081971 16.24512918 4.25 19.875 C4.270625 20.84308594 4.29125 21.81117188 4.3125 22.80859375 C4.34405836 28.60744203 4.0427591 32.9811569 1 38 C-1.79921734 39.33032111 -3.8153832 39 -7 39 C-9.86554658 37.56722671 -10.35139999 35.41723917 -11.38037109 32.50927734 C-12.57740303 27.66172247 -12.38831318 22.77674701 -12.3125 17.8125 C-12.31572266 16.74580078 -12.31894531 15.67910156 -12.32226562 14.58007812 C-12.26006651 5.53858865 -12.26006651 5.53858865 -10 1 C-6.80922238 -0.59538881 -3.4642712 -0.51112198 0 0 Z " fill="#13170D" transform="translate(150,235)"/>
<path d="M0 0 C8.07692308 0 8.07692308 0 12 3 C13.15638891 5.31277781 13.19868928 6.80091221 13.25 9.375 C13.28867188 10.53128906 13.28867188 10.53128906 13.328125 11.7109375 C12.90672931 14.65067412 12.12706692 15.93265634 10 18 C6.64956736 18.82309841 3.46777637 18.81985577 0 19 C0 12.73 0 6.46 0 0 Z " fill="#14180D" transform="translate(92,235)"/>
<path d="M0 0 C0.90105469 0.02707031 1.80210937 0.05414063 2.73046875 0.08203125 C3.76107422 0.13423828 3.76107422 0.13423828 4.8125 0.1875 C4.8125 0.5175 4.8125 0.8475 4.8125 1.1875 C2.5025 1.1875 0.1925 1.1875 -2.1875 1.1875 C-1.8575 2.1775 -1.5275 3.1675 -1.1875 4.1875 C-2.5075 5.1775 -3.8275 6.1675 -5.1875 7.1875 C-6.1775 5.8675 -7.1675 4.5475 -8.1875 3.1875 C-5.67753317 0.01043235 -3.96125134 -0.15433447 0 0 Z " fill="#696C62" transform="translate(429.1875,292.8125)"/>
</svg>
